<svg height="15.05" viewBox="0 0 15.05 15.05" width="15.05" xmlns="http://www.w3.org/2000/svg">
    <g fill="#1d2226">
        <path
            d="m18.212 17.874v-5.52c0-2.7-.581-4.78-3.738-4.78a3.277 3.277 0 0 0 -2.948 1.626h-.044v-1.374h-2.993v10.048h3.117v-4.974c0-1.31.248-2.577 1.871-2.577 1.6 0 1.622 1.495 1.622 2.661v4.892z"
            transform="translate(-3.166 -2.825)" />
        <path d="m.4 7.977h3.12v10.048h-3.12z" transform="translate(-.148 -2.975)" />
        <path d="m1.807 0a1.816 1.816 0 1 0 1.807 1.807 1.808 1.808 0 0 0 -1.807-1.807z" />
    </g>
</svg>